<svg id="Layer_1" data-name="Layer 1" xmlns="http://www.w3.org/2000/svg" viewBox="0 0 595.28 595.28"><defs><style>.cls-1{fill:#00a6d5;}</style></defs><path class="cls-1" d="M563.81,359.45v-71l-69.2-13.84-21.22-51.66,37.83-61.81L461.4,111.28l-57.27,40.59-56.21-19.38L333.16,55.92h-71l-15.69,77.5-50.74,18.45L139,109.43,84.06,163.86,125.57,222,103.43,275.5l-72,14.76v72l71.13,13.17,20.21,56-40.6,55.36,53.52,52.58,58.11-36.89,29.36,12.91h0c5.8-4.18,28-21.11,28.68-35.84.48-10-8.46-26.91-21.32-40.88-7.8-8.48-21.28-32.9-3.38-54.76,18.7-22.82,43.55-40.83,46.25-66.34,2.34-22.12-13.22-37.13-12-66.89.75-18.27,19.65-50.77,55.28-82.18-61.72,78.92-5.47,116.17,4.63,127.14-4.63-16-3-53.69,21-80.4-10.18,23.29-8.54,44.59,22,85.26,39.8,53,37.19,82.2,35.62,92.68-5.05,33.71-50.91,64.83-51.14,86.23-.13,12.1,18.19,29.76,25.09,36h.74l36-18.45,48.9,42.44L514,484.92l-39.68-54.43L496.45,377ZM240.5,332.57c-6.83,8.58-28.71,29.92-32.59,42.79-10.61-22.06,9.13-44.25,17.72-54.23,11.79-13.69,24.49-30.2,18.72-48.2C259.54,295.43,254.14,315.41,240.5,332.57Z"/></svg>