<svg id="Layer_1" data-name="Layer 1" xmlns="http://www.w3.org/2000/svg" viewBox="0 0 533.34 484.62"><defs><style>.cls-1{fill:none;stroke:#231f20;stroke-miterlimit:10;}</style></defs><path class="cls-1" d="M552.44,352.72v-71l-69.19-13.84L462,216.18l37.83-61.82L450,104.54l-57.27,40.59-56.21-19.37L321.79,49.19h-71l-15.69,77.49-50.74,18.45L127.59,102.7,72.7,157.13l41.51,58.12L92.07,268.77l-72,14.75v72l71.13,13.18,20.2,56L70.85,480l53.52,52.58,58.11-36.89,29.35,12.92h0c5.8-4.19,28-21.11,28.67-35.84.48-10-8.45-26.91-21.31-40.89-7.8-8.48-21.28-32.89-3.38-54.75,18.7-22.83,43.55-40.84,46.25-66.34,2.34-22.12-13.22-37.14-12-66.89.75-18.27,19.65-50.78,55.28-82.19-61.72,78.92-5.47,116.18,4.63,127.14-4.64-16-3-53.69,21-80.4-10.18,23.3-8.55,44.59,22,85.27,39.81,53,37.2,82.19,35.63,92.67-5.05,33.72-50.91,64.84-51.14,86.24-.14,12.1,18.19,29.76,25.08,36h.75l36-18.45,48.9,42.43,54.43-54.43L463,423.76l22.14-53.51Zm-323.3-26.89c-6.83,8.59-28.71,29.93-32.59,42.8-10.61-22.06,9.13-44.25,17.72-54.23,11.79-13.69,24.49-30.21,18.72-48.2C248.17,288.7,242.77,308.67,229.14,325.83Z" transform="translate(-19.61 -48.69)"/></svg>